<?xml version="1.0" standalone="no"?>
<!DOCTYPE svg PUBLIC "-//W3C//DTD SVG 20010904//EN"
 "http://www.w3.org/TR/2001/REC-SVG-20010904/DTD/svg10.dtd">
<svg version="1.0" xmlns="http://www.w3.org/2000/svg"
 width="160.000000pt" height="160.000000pt" viewBox="0 0 160.000000 160.000000"
 preserveAspectRatio="xMidYMid meet">

<g transform="translate(0.000000,160.000000) scale(0.100000,-0.100000)"
fill="#000000" stroke="none">
<path d="M633 1456 c-46 -50 -113 -179 -113 -217 0 -8 -11 -10 -37 -5 -145 24
-246 18 -264 -15 -19 -37 5 -51 75 -44 54 6 181 -7 193 -19 3 -2 -3 -49 -12
-103 -11 -64 -22 -101 -32 -107 -9 -5 -45 -33 -81 -64 l-65 -55 -33 39 c-41
49 -84 127 -94 171 -5 19 -3 48 3 69 9 28 8 38 -5 51 -23 22 -46 10 -64 -34
-29 -68 10 -186 98 -293 l45 -54 -45 -56 c-63 -77 -106 -172 -106 -235 0 -71
27 -113 94 -148 54 -28 57 -29 193 -24 100 3 137 1 137 -7 0 -27 81 -177 116
-216 48 -53 82 -70 139 -70 56 0 88 16 138 68 41 42 45 67 14 86 -15 9 -23 6
-46 -20 -82 -90 -151 -86 -219 15 -32 46 -72 138 -72 164 0 7 21 20 48 29 26
9 68 24 93 33 l45 18 80 -30 c43 -17 87 -33 96 -36 16 -6 16 -10 3 -48 -11
-31 -12 -45 -4 -55 22 -27 49 -16 69 28 l19 42 143 1 c120 0 149 3 181 19 126
63 124 219 -6 378 -26 32 -47 61 -47 64 0 3 11 20 26 36 53 64 1 108 -55 46
l-30 -33 -38 36 c-21 19 -56 50 -79 67 -39 30 -41 34 -57 128 -10 53 -16 98
-14 101 2 2 40 9 85 15 59 9 93 9 127 1 45 -10 49 -10 71 16 l23 26 -32 14
c-36 15 -166 20 -245 8 -45 -7 -53 -5 -58 10 -23 68 -90 186 -125 223 l-42 43
-12 -34 c-10 -29 -9 -37 5 -54 38 -46 62 -87 85 -150 23 -61 24 -66 8 -71 -10
-3 -54 -19 -98 -35 l-80 -29 -90 35 c-83 31 -90 36 -88 60 3 35 46 128 81 173
25 34 27 40 17 70 l-12 34 -50 -56z m-17 -332 c27 -9 53 -20 57 -24 5 -4 -22
-24 -58 -44 -37 -20 -69 -36 -70 -34 -3 3 17 118 20 118 1 0 24 -7 51 -16z
m390 -101 c-2 -3 -34 13 -70 33 -72 42 -72 45 9 69 l40 12 13 -55 c7 -30 11
-57 8 -59z m-131 -14 c147 -81 146 -80 152 -180 3 -48 3 -111 -1 -142 -7 -56
-8 -56 -69 -95 -82 -52 -162 -92 -184 -92 -18 0 -180 87 -222 119 -24 18 -24
22 -24 156 l0 138 28 23 c24 19 212 123 224 124 2 0 45 -23 96 -51z m-409
-277 c17 -37 13 -72 -12 -97 -11 -11 -13 -19 -6 -28 8 -10 42 -175 42 -206 0
-12 -85 -23 -166 -23 -150 1 -194 78 -122 214 22 43 66 97 138 168 l105 105 3
-50 c1 -27 10 -65 18 -83z m711 66 l23 -24 -28 -25 c-15 -13 -37 -33 -49 -43
l-23 -19 0 87 0 87 28 -19 c15 -11 37 -31 49 -44z m128 -135 c25 -32 55 -83
66 -113 49 -130 -30 -189 -226 -168 -43 4 -80 10 -82 11 -2 2 5 48 14 103 l16
99 76 62 c42 34 79 62 83 62 4 1 28 -25 53 -56z m-671 -178 l50 -29 -33 -13
c-18 -8 -46 -16 -61 -20 -26 -5 -28 -3 -35 38 -3 24 -9 53 -12 64 -5 18 -4 18
18 4 13 -9 46 -29 73 -44z m366 -19 l-11 -54 -60 20 c-33 11 -58 22 -55 25 17
17 132 78 134 71 2 -4 -2 -32 -8 -62z"/>
<path d="M695 966 c-44 -20 -83 -60 -105 -108 -36 -79 -20 -161 44 -224 86
-86 209 -83 292 7 43 47 57 89 52 154 -9 106 -96 185 -202 185 -28 -1 -64 -7
-81 -14z m144 -74 c103 -55 86 -206 -27 -243 -72 -24 -153 29 -168 108 -5 28
-2 47 16 79 36 70 111 93 179 56z"/>
<path d="M1413 1053 c-28 -4 -32 -8 -38 -45 -12 -68 39 -92 64 -30 17 43 24
82 15 80 -5 0 -23 -3 -41 -5z"/>
</g>
</svg>
